<svg width="513" height="513" viewBox="0 0 513 513" fill="none" xmlns="http://www.w3.org/2000/svg">
<path d="M512.284 256.237C512.284 397.622 407.276 412.444 265.891 412.444C124.506 412.444 0.28418 397.622 0.28418 256.237C0.28418 114.852 114.899 0.237305 256.284 0.237305C397.669 0.237305 512.284 114.852 512.284 256.237Z" fill="#F8F8F8"/>
<path d="M481.705 271.526C481.705 404.467 392.08 460.567 259.139 460.567C276.512 356.767 256.417 348.613 212.595 302.806C171.243 259.582 197.998 265.467 3.99707 301.087C3.99707 168.146 108.054 30.8154 240.995 30.8154C373.936 30.8154 481.705 138.585 481.705 271.526Z" fill="url(#paint0_linear_35_160)"/>
<path fill-rule="evenodd" clip-rule="evenodd" d="M4.01758 300.044C88.1039 218.416 172.19 219.645 256.276 303.731C339.793 387.248 423.31 389.026 506.827 309.064C482.483 425.103 379.559 512.237 256.284 512.237C129.835 512.237 24.7982 420.559 4.01758 300.044Z" fill="url(#paint1_linear_35_160)"/>
<path d="M382.577 282.853C382.577 286.48 379.637 289.421 376.009 289.421C372.381 289.421 369.44 286.48 369.44 282.853C369.44 279.225 372.381 276.284 376.009 276.284C379.637 276.284 382.577 279.225 382.577 282.853Z" fill="#F8F8F8"/>
<path d="M426.268 231.995C426.268 236.267 422.805 239.73 418.532 239.73C414.26 239.73 410.797 236.267 410.797 231.995C410.797 227.723 414.26 224.259 418.532 224.259C422.805 224.259 426.268 227.723 426.268 231.995Z" fill="#F8F8F8"/>
<path d="M360.463 198.672C360.463 205.413 354.999 210.877 348.258 210.877C341.518 210.877 336.053 205.413 336.053 198.672C336.053 191.931 341.518 186.467 348.258 186.467C354.999 186.467 360.463 191.931 360.463 198.672Z" fill="#F8F8F8"/>
<path fill-rule="evenodd" clip-rule="evenodd" d="M331.153 128.938C321.904 128.938 314.406 117.582 314.406 103.573C314.406 74.4522 314.406 66.6802 314.406 103.573C314.406 117.582 306.909 128.938 297.66 128.938C277.6 128.938 272.415 128.938 297.66 128.938C306.909 128.938 314.406 140.294 314.406 154.303C314.406 183.424 314.406 191.196 314.406 154.303C314.406 140.294 321.904 128.938 331.153 128.938C351.532 128.938 356.26 128.938 331.153 128.938Z" fill="#F8F8F8"/>
<path fill-rule="evenodd" clip-rule="evenodd" d="M273.003 71.9646C263.754 71.9646 256.256 60.6083 256.256 46.5995C256.256 17.4788 256.256 9.70678 256.256 46.5995C256.256 60.6083 248.759 71.9646 239.51 71.9646C219.45 71.9646 214.265 71.9646 239.51 71.9646C248.759 71.9646 256.256 83.3209 256.256 97.3296C256.256 126.45 256.256 134.222 256.256 97.3296C256.256 83.3209 263.754 71.9646 273.003 71.9646C293.382 71.9646 298.11 71.9646 273.003 71.9646Z" fill="#F8F8F8"/>
<path fill-rule="evenodd" clip-rule="evenodd" d="M419.978 148.466C410.729 148.466 403.231 137.11 403.231 123.101C403.231 93.9803 403.231 86.2082 403.231 123.101C403.231 137.11 395.734 148.466 386.485 148.466C366.425 148.466 361.24 148.466 386.485 148.466C395.734 148.466 403.231 159.822 403.231 173.831C403.231 202.952 403.231 210.724 403.231 173.831C403.231 159.822 410.729 148.466 419.978 148.466C440.357 148.466 445.085 148.466 419.978 148.466Z" fill="#F8F8F8"/>
<defs>
<linearGradient id="paint0_linear_35_160" x1="0.359569" y1="267.818" x2="429.874" y2="121.233" gradientUnits="userSpaceOnUse">
<stop stop-color="#DFCBDF"/>
<stop offset="0.5" stop-color="#DEBFBE"/>
<stop offset="1" stop-color="#E2C9B4"/>
</linearGradient>
<linearGradient id="paint1_linear_35_160" x1="96.3173" y1="458.436" x2="352.802" y2="229.703" gradientUnits="userSpaceOnUse">
<stop stop-color="#111111"/>
<stop offset="1" stop-color="#2E3B40"/>
</linearGradient>
</defs>
</svg>
